####
#
#	OBJ File Generated by LightWave3D
#	LightWave3D OBJ Export v2.3
#
####
o test_scale1000.obj
mtllib test_scale1000.mtl
g default
v 352.741 0 14.7618
v 352.741 808.48 14.7618
v 352.741 808.48 -344.847
v 352.741 0 -344.847
v 352.741 964.13 -139.682
v 352.741 964.13 -344.847
v 352.741 774.271 -344.847
v 352.741 774.271 14.7618
v 352.741 808.48 335.789
v 352.741 774.271 335.789
v 352.741 2171.08 -139.682
v 352.741 2171.08 -344.847
v -352.741 0 14.7618
v -352.741 808.48 14.7618
v -352.741 808.48 -344.847
v -352.741 0 -344.847
v -352.741 964.13 -139.682
v -352.741 964.13 -344.847
v -352.741 774.271 -344.847
v -352.741 774.271 14.7618
v -352.741 808.48 335.789
v -352.741 774.271 335.789
v -352.741 2171.08 -139.682
v -352.741 2171.08 -344.847
vt 0 0
vt 0 1
vt 1 0
vt 1 1
vn 1 0 0
vn 1 0 0
vn 1 0 0
vn 1 0 0
vn 1 0 -0
vn 1 0 -0
vn 1 0 -0
vn 1 0 -0
vn 1 0 -0
vn 1 0 -0
vn 1 0 -0
vn 1 0 -0
vn 1 0 -0
vn 1 0 -0
vn 1 0 -0
vn 1 0 -0
vn 1 0 0
vn 1 0 0
vn 1 0 0
vn 1 0 0
vn 0 1 -0
vn 0 1 -0
vn 0 1 -0
vn 0 1 -0
vn 0 -1 -0
vn 0 -1 -0
vn 0 -1 -0
vn 0 -1 -0
vn 0 0.704351 0.709852
vn 0 0.704351 0.709852
vn 0 0.704351 0.709852
vn 0 0.704351 0.709852
vn -0 0 -1
vn -0 0 -1
vn -0 0 -1
vn -0 0 -1
vn -1 -0 -0
vn -1 -0 -0
vn -1 -0 -0
vn -1 -0 -0
vn -0 0 -1
vn -0 0 -1
vn -0 0 -1
vn -0 0 -1
vn 0 0 -1
vn 0 0 -1
vn 0 0 -1
vn 0 0 -1
vn -1 -0 0
vn -1 -0 0
vn -1 -0 0
vn -1 -0 0
vn -1 0 -0
vn -1 0 -0
vn -1 0 -0
vn -1 0 -0
vn -0 -0 1
vn -0 -0 1
vn -0 -0 1
vn -0 -0 1
vn 0 0 1
vn 0 0 1
vn 0 0 1
vn 0 0 1
vn 0 1 -0
vn 0 1 -0
vn 0 1 -0
vn 0 1 -0
vn -1 0 -0
vn -1 0 -0
vn -1 0 -0
vn -1 0 -0
vn 0 -1 -0
vn 0 -1 -0
vn 0 -1 -0
vn 0 -1 -0
vn -0 -0 1
vn -0 -0 1
vn -0 -0 1
vn -0 -0 1
vn -0 0 -1
vn -0 0 -1
vn -0 0 -1
vn -0 0 -1
vn -1 0 -0
vn -1 0 -0
vn -1 0 -0
vn -1 0 -0
g Default
usemtl Default
s off
f 2//1 3//2 6//3 5//4
f 2//5 8//6 7//7 3//8
f 4//9 7//10 8//11 1//12
f 8//13 2//14 9//15 10//16
f 5//17 6//18 12//19 11//20
f 11//21 12//22 24//23 23//24
f 16//25 4//26 1//27 13//28
f 17//29 14//30 2//31 5//32
f 6//33 3//34 15//35 18//36
f 18//37 15//38 14//39 17//40
f 3//41 7//42 19//43 15//44
f 19//45 7//46 4//47 16//48
f 19//49 20//50 14//51 15//52
f 20//53 19//54 16//55 13//56
f 21//57 22//58 10//59 9//60
f 1//61 8//62 20//63 13//64
f 9//65 2//66 14//67 21//68
f 21//69 14//70 20//71 22//72
f 22//73 20//74 8//75 10//76
g screen
usemtl screen
s off
f 23/2/77 17/1/78 5/3/79 11/4/80
g Default
usemtl Default
s off
f 12//81 6//82 18//83 24//84
f 24//85 18//86 17//87 23//88
